STARTFONT 2.3
FONT -FontForge-Satisfy-Book-R-Normal--8-80-72-72-P-35-ISO10646-1
SIZE 8 72 72  4
FONTBOUNDINGBOX 10 12 -2 -4
COMMENT "Generated by fontforge, http://fontforge.sourceforge.net"
COMMENT "Copyright (c) 2011 by Font Diner, Inc. All rights reserved."
STARTPROPERTIES 40
FOUNDRY "FontForge"
FAMILY_NAME "Satisfy"
WEIGHT_NAME "Book"
SLANT "R"
SETWIDTH_NAME "Normal"
ADD_STYLE_NAME ""
PIXEL_SIZE 8
POINT_SIZE 80
RESOLUTION_X 72
RESOLUTION_Y 72
SPACING "P"
AVERAGE_WIDTH 35
CHARSET_REGISTRY "ISO10646"
CHARSET_ENCODING "1"
FONTNAME_REGISTRY ""
CHARSET_COLLECTIONS "ISO10646-1"
BITS_PER_PIXEL 4
FONT_NAME "Satisfy-Regular"
FACE_NAME "Satisfy Regular"
COPYRIGHT "Copyright (c) 2011 by Font Diner, Inc. All rights reserved."
FONT_VERSION "1.001"
FONT_ASCENT 6
FONT_DESCENT 2
UNDERLINE_POSITION -1
UNDERLINE_THICKNESS 1
X_HEIGHT 3
CAP_HEIGHT 5
RAW_ASCENT 799
RAW_DESCENT 200
NORM_SPACE 2
RELATIVE_WEIGHT 40
RELATIVE_SETWIDTH 50
SUPERSCRIPT_X 0
SUPERSCRIPT_Y 3
SUPERSCRIPT_SIZE 5
SUBSCRIPT_X 0
SUBSCRIPT_Y 1
SUBSCRIPT_SIZE 5
AVG_LOWERCASE_WIDTH 32
AVG_UPPERCASE_WIDTH 45
ENDPROPERTIES
CHARS 227
STARTCHAR space
ENCODING 32
SWIDTH 280 0
DWIDTH 2 0
BBX 1 1 0 0
BITMAP
00
ENDCHAR
STARTCHAR exclam
ENCODING 33
SWIDTH 249 0
DWIDTH 2 0
BBX 4 7 -1 -1
BITMAP
0091
00B0
0380
0640
0800
1700
0100
ENDCHAR
STARTCHAR quotedbl
ENCODING 34
SWIDTH 249 0
DWIDTH 2 0
BBX 3 3 0 3
BITMAP
3660
7730
4400
ENDCHAR
STARTCHAR numbersign
ENCODING 35
SWIDTH 417 0
DWIDTH 3 0
BBX 5 4 -1 1
BITMAP
007610
06BB40
19AA10
086200
ENDCHAR
STARTCHAR dollar
ENCODING 36
SWIDTH 292 0
DWIDTH 2 0
BBX 4 6 -1 0
BITMAP
0051
0648
0733
0280
3480
0930
ENDCHAR
STARTCHAR percent
ENCODING 37
SWIDTH 574 0
DWIDTH 5 0
BBX 5 7 0 -1
BITMAP
282340
836800
788100
047710
188430
918900
101000
ENDCHAR
STARTCHAR ampersand
ENCODING 38
SWIDTH 460 0
DWIDTH 4 0
BBX 5 7 -1 -1
BITMAP
003830
009810
00C200
09C000
479320
4A9A00
021400
ENDCHAR
STARTCHAR quotesingle
ENCODING 39
SWIDTH 113 0
DWIDTH 1 0
BBX 2 3 0 3
BITMAP
35
72
40
ENDCHAR
STARTCHAR parenleft
ENCODING 40
SWIDTH 234 0
DWIDTH 2 0
BBX 3 8 0 -1
BITMAP
0030
0710
1700
6300
9000
9000
8000
5000
ENDCHAR
STARTCHAR parenright
ENCODING 41
SWIDTH 204 0
DWIDTH 2 0
BBX 3 8 -1 -1
BITMAP
0120
0170
0180
0360
0630
0800
2600
6000
ENDCHAR
STARTCHAR asterisk
ENCODING 42
SWIDTH 327 0
DWIDTH 3 0
BBX 3 3 0 3
BITMAP
2530
3C80
3660
ENDCHAR
STARTCHAR plus
ENCODING 43
SWIDTH 350 0
DWIDTH 3 0
BBX 3 4 0 1
BITMAP
0200
2A20
7A30
1300
ENDCHAR
STARTCHAR comma
ENCODING 44
SWIDTH 200 0
DWIDTH 2 0
BBX 2 2 -1 -1
BITMAP
15
16
ENDCHAR
STARTCHAR hyphen
ENCODING 45
SWIDTH 353 0
DWIDTH 3 0
BBX 4 1 -1 2
BITMAP
1885
ENDCHAR
STARTCHAR period
ENCODING 46
SWIDTH 213 0
DWIDTH 2 0
BBX 2 2 -1 -1
BITMAP
16
01
ENDCHAR
STARTCHAR slash
ENCODING 47
SWIDTH 262 0
DWIDTH 2 0
BBX 4 7 -1 -1
BITMAP
0007
0044
0080
0630
1800
8300
1000
ENDCHAR
STARTCHAR zero
ENCODING 48
SWIDTH 489 0
DWIDTH 4 0
BBX 4 7 0 -1
BITMAP
0483
1918
7418
A146
A092
7760
0200
ENDCHAR
STARTCHAR one
ENCODING 49
SWIDTH 272 0
DWIDTH 2 0
BBX 2 7 0 -1
BITMAP
0A
0B
18
45
81
B0
10
ENDCHAR
STARTCHAR two
ENCODING 50
SWIDTH 448 0
DWIDTH 4 0
BBX 5 7 -1 -1
BITMAP
006740
046560
000910
006500
075000
2CA700
010100
ENDCHAR
STARTCHAR three
ENCODING 51
SWIDTH 462 0
DWIDTH 4 0
BBX 4 7 0 -1
BITMAP
1884
5737
0191
0690
2090
C770
1200
ENDCHAR
STARTCHAR four
ENCODING 52
SWIDTH 452 0
DWIDTH 4 0
BBX 4 7 0 -1
BITMAP
0084
0792
6580
B8D2
0280
0670
0100
ENDCHAR
STARTCHAR five
ENCODING 53
SWIDTH 444 0
DWIDTH 4 0
BBX 4 7 0 -1
BITMAP
07A8
1601
5870
5490
4070
DA30
1100
ENDCHAR
STARTCHAR six
ENCODING 54
SWIDTH 477 0
DWIDTH 4 0
BBX 4 7 0 -1
BITMAP
0385
0933
5981
9754
A082
6770
0200
ENDCHAR
STARTCHAR seven
ENCODING 55
SWIDTH 406 0
DWIDTH 3 0
BBX 4 7 0 -1
BITMAP
3A96
1063
0280
0A10
3800
8400
1000
ENDCHAR
STARTCHAR eight
ENCODING 56
SWIDTH 444 0
DWIDTH 4 0
BBX 4 7 0 -1
BITMAP
0554
0A35
0C80
5880
90B0
9660
1200
ENDCHAR
STARTCHAR nine
ENCODING 57
SWIDTH 462 0
DWIDTH 4 0
BBX 4 7 0 -1
BITMAP
0672
3726
7276
67B3
1290
AA30
1100
ENDCHAR
STARTCHAR colon
ENCODING 58
SWIDTH 226 0
DWIDTH 2 0
BBX 3 4 -1 -1
BITMAP
0200
0510
1600
0100
ENDCHAR
STARTCHAR semicolon
ENCODING 59
SWIDTH 212 0
DWIDTH 2 0
BBX 2 4 -1 -1
BITMAP
02
06
15
16
ENDCHAR
STARTCHAR less
ENCODING 60
SWIDTH 271 0
DWIDTH 2 0
BBX 3 5 0 0
BITMAP
0110
3910
B000
7400
0100
ENDCHAR
STARTCHAR equal
ENCODING 61
SWIDTH 374 0
DWIDTH 3 0
BBX 3 3 0 1
BITMAP
4870
8950
1000
ENDCHAR
STARTCHAR greater
ENCODING 62
SWIDTH 250 0
DWIDTH 2 0
BBX 3 4 -1 1
BITMAP
0100
0560
01B0
2910
ENDCHAR
STARTCHAR question
ENCODING 63
SWIDTH 413 0
DWIDTH 3 0
BBX 4 7 0 -1
BITMAP
2885
5219
0083
4920
8200
8000
2000
ENDCHAR
STARTCHAR at
ENCODING 64
SWIDTH 648 0
DWIDTH 5 0
BBX 6 7 -1 -1
BITMAP
000110
018555
0948C7
279177
27A938
075581
001000
ENDCHAR
STARTCHAR A
ENCODING 65
SWIDTH 552 0
DWIDTH 4 0
BBX 5 8 -1 -2
BITMAP
000690
005480
00A090
047190
3BABA0
0C0740
590830
410640
ENDCHAR
STARTCHAR B
ENCODING 66
SWIDTH 607 0
DWIDTH 5 0
BBX 5 8 0 -2
BITMAP
199830
2B2390
0A0840
2C9800
661A10
A10B10
C07800
663000
ENDCHAR
STARTCHAR C
ENCODING 67
SWIDTH 548 0
DWIDTH 4 0
BBX 5 8 0 -2
BITMAP
028820
0B1660
670930
B20000
D00000
C00100
A46300
163000
ENDCHAR
STARTCHAR D
ENCODING 68
SWIDTH 632 0
DWIDTH 5 0
BBX 5 8 0 -2
BITMAP
199700
171570
0C01A0
0B03B0
470670
730B10
C29300
461000
ENDCHAR
STARTCHAR E
ENCODING 69
SWIDTH 523 0
DWIDTH 4 0
BBX 6 8 -1 -2
BITMAP
004782
02A073
058060
01B500
093100
3A0030
1C3620
026200
ENDCHAR
STARTCHAR F
ENCODING 70
SWIDTH 585 0
DWIDTH 5 0
BBX 5 8 0 -2
BITMAP
287850
980370
120910
189B20
009200
01B000
058000
033000
ENDCHAR
STARTCHAR G
ENCODING 71
SWIDTH 612 0
DWIDTH 5 0
BBX 5 8 0 -2
BITMAP
007830
093470
3A0930
950000
C17C40
C00900
927300
163000
ENDCHAR
STARTCHAR H
ENCODING 72
SWIDTH 649 0
DWIDTH 5 0
BBX 6 8 0 -2
BITMAP
053072
0A10B0
0A0280
3B7A90
768920
A13B00
C02800
501200
ENDCHAR
STARTCHAR I
ENCODING 73
SWIDTH 537 0
DWIDTH 4 0
BBX 6 8 -1 -2
BITMAP
000690
003890
0065A0
003880
047B81
680A00
674500
044000
ENDCHAR
STARTCHAR J
ENCODING 74
SWIDTH 500 0
DWIDTH 4 0
BBX 6 8 -1 -2
BITMAP
0029B5
000190
000560
010930
1C3C00
732900
909200
163000
ENDCHAR
STARTCHAR K
ENCODING 75
SWIDTH 497 0
DWIDTH 4 0
BBX 6 9 -1 -3
BITMAP
008163
00B0B1
047570
087700
0B6B00
0B0B00
392900
232A30
000110
ENDCHAR
STARTCHAR L
ENCODING 76
SWIDTH 492 0
DWIDTH 4 0
BBX 6 8 -1 -2
BITMAP
0003B2
000B92
034E50
028600
008200
009000
9DA230
223830
ENDCHAR
STARTCHAR M
ENCODING 77
SWIDTH 733 0
DWIDTH 6 0
BBX 7 8 -1 -2
BITMAP
001A0390
006C0990
00A93960
00A98730
457A7A00
874C3B00
9B021C00
34000610
ENDCHAR
STARTCHAR N
ENCODING 78
SWIDTH 541 0
DWIDTH 4 0
BBX 6 8 -1 -2
BITMAP
00904B
02E0A7
06A2C3
097280
0A6560
295A30
492E00
140400
ENDCHAR
STARTCHAR O
ENCODING 79
SWIDTH 567 0
DWIDTH 5 0
BBX 5 8 0 -2
BITMAP
03B800
0A0910
650920
A10A10
B00B00
B03800
A1A100
272000
ENDCHAR
STARTCHAR P
ENCODING 80
SWIDTH 552 0
DWIDTH 4 0
BBX 6 8 -1 -2
BITMAP
019692
04A048
009065
027390
068500
0A1000
1C0000
230000
ENDCHAR
STARTCHAR Q
ENCODING 81
SWIDTH 583 0
DWIDTH 5 0
BBX 5 8 0 -2
BITMAP
038800
1B0640
750550
B10830
B10B00
365700
89E200
350510
ENDCHAR
STARTCHAR R
ENCODING 82
SWIDTH 560 0
DWIDTH 4 0
BBX 6 8 -1 -2
BITMAP
019792
04A038
009056
03A2A0
08BB00
093900
0C0A10
130680
ENDCHAR
STARTCHAR S
ENCODING 83
SWIDTH 474 0
DWIDTH 4 0
BBX 5 8 -1 -2
BITMAP
008780
0470B0
058040
00B400
001B00
250900
493600
066000
ENDCHAR
STARTCHAR T
ENCODING 84
SWIDTH 423 0
DWIDTH 3 0
BBX 5 8 0 -2
BITMAP
7AB820
138000
064000
0A0000
0A0000
290000
660000
320000
ENDCHAR
STARTCHAR U
ENCODING 85
SWIDTH 574 0
DWIDTH 5 0
BBX 5 8 0 -2
BITMAP
072190
1C0570
480930
830B00
A01A00
A06800
C3A700
361300
ENDCHAR
STARTCHAR V
ENCODING 86
SWIDTH 503 0
DWIDTH 4 0
BBX 5 8 0 -2
BITMAP
180450
560B10
832A00
916500
90A000
828000
5A2000
050000
ENDCHAR
STARTCHAR W
ENCODING 87
SWIDTH 817 0
DWIDTH 7 0
BBX 7 8 0 -2
BITMAP
08130650
1A0C0650
651B0730
91280900
90760A00
90B64500
97499000
24051000
ENDCHAR
STARTCHAR X
ENCODING 88
SWIDTH 579 0
DWIDTH 5 0
BBX 7 8 -1 -2
BITMAP
05910920
09657500
037A9000
000D1000
007A0000
02990000
1B183400
13016100
ENDCHAR
STARTCHAR Y
ENCODING 89
SWIDTH 532 0
DWIDTH 4 0
BBX 5 8 0 -2
BITMAP
0A0460
390830
740B00
912A00
A49600
257200
859000
560000
ENDCHAR
STARTCHAR Z
ENCODING 90
SWIDTH 455 0
DWIDTH 4 0
BBX 5 8 -1 -2
BITMAP
03BAA0
0101A0
000A30
007500
048000
1A0000
888700
344300
ENDCHAR
STARTCHAR bracketleft
ENCODING 91
SWIDTH 202 0
DWIDTH 2 0
BBX 4 8 -1 -1
BITMAP
0063
0080
0350
0710
0800
0800
3600
4700
ENDCHAR
STARTCHAR backslash
ENCODING 92
SWIDTH 273 0
DWIDTH 2 0
BBX 2 7 0 -1
BITMAP
80
81
53
35
18
0A
01
ENDCHAR
STARTCHAR bracketright
ENCODING 93
SWIDTH 216 0
DWIDTH 2 0
BBX 3 8 -1 -1
BITMAP
0180
0080
0080
0260
0630
0800
0800
7400
ENDCHAR
STARTCHAR asciicircum
ENCODING 94
SWIDTH 287 0
DWIDTH 2 0
BBX 3 4 0 2
BITMAP
0830
4850
9270
0010
ENDCHAR
STARTCHAR underscore
ENCODING 95
SWIDTH 439 0
DWIDTH 4 0
BBX 5 2 -1 -1
BITMAP
799810
100100
ENDCHAR
STARTCHAR grave
ENCODING 96
SWIDTH 567 0
DWIDTH 5 0
BBX 2 2 2 4
BITMAP
50
33
ENDCHAR
STARTCHAR a
ENCODING 97
SWIDTH 435 0
DWIDTH 3 0
BBX 5 5 -1 -1
BITMAP
003100
057600
093540
1C8830
010100
ENDCHAR
STARTCHAR b
ENCODING 98
SWIDTH 415 0
DWIDTH 3 0
BBX 4 7 0 -1
BITMAP
0700
2C00
7700
B595
8270
8810
1000
ENDCHAR
STARTCHAR c
ENCODING 99
SWIDTH 363 0
DWIDTH 3 0
BBX 4 5 0 -1
BITMAP
0300
8930
9023
A550
1200
ENDCHAR
STARTCHAR d
ENCODING 100
SWIDTH 483 0
DWIDTH 4 0
BBX 5 7 0 -1
BITMAP
000600
003B00
027700
66D100
817230
B79500
001000
ENDCHAR
STARTCHAR e
ENCODING 101
SWIDTH 372 0
DWIDTH 3 0
BBX 4 5 0 -1
BITMAP
0300
6930
C513
B550
1100
ENDCHAR
STARTCHAR f
ENCODING 102
SWIDTH 325 0
DWIDTH 3 0
BBX 5 10 -1 -4
BITMAP
007000
00B000
018000
056410
0B4000
0C4000
369000
729000
947000
770000
ENDCHAR
STARTCHAR g
ENCODING 103
SWIDTH 459 0
DWIDTH 4 0
BBX 6 8 -1 -4
BITMAP
002000
076C00
090931
0B8B30
02B300
099000
179000
0A5000
ENDCHAR
STARTCHAR h
ENCODING 104
SWIDTH 465 0
DWIDTH 4 0
BBX 5 7 0 -1
BITMAP
050000
1A0000
461000
88B000
919310
93A400
101000
ENDCHAR
STARTCHAR i
ENCODING 105
SWIDTH 274 0
DWIDTH 2 0
BBX 3 6 0 0
BITMAP
0100
0600
0000
8300
9050
9710
ENDCHAR
STARTCHAR j
ENCODING 106
SWIDTH 267 0
DWIDTH 2 0
BBX 5 10 -2 -4
BITMAP
000100
000600
000000
007300
00A150
00B600
078000
5A3000
890000
340000
ENDCHAR
STARTCHAR k
ENCODING 107
SWIDTH 440 0
DWIDTH 4 0
BBX 5 7 -1 -1
BITMAP
006000
019000
045100
087900
08A340
176830
011100
ENDCHAR
STARTCHAR l
ENCODING 108
SWIDTH 218 0
DWIDTH 2 0
BBX 3 7 -1 -1
BITMAP
0050
01A0
0560
0820
0A00
1900
0100
ENDCHAR
STARTCHAR m
ENCODING 109
SWIDTH 717 0
DWIDTH 6 0
BBX 7 4 0 -1
BITMAP
78C8A000
B2B38320
B2859500
10002000
ENDCHAR
STARTCHAR n
ENCODING 110
SWIDTH 461 0
DWIDTH 4 0
BBX 6 5 -1 -1
BITMAP
000100
089A00
0A1932
194A40
000200
ENDCHAR
STARTCHAR o
ENCODING 111
SWIDTH 393 0
DWIDTH 3 0
BBX 4 5 0 -1
BITMAP
0200
9743
C992
9910
1000
ENDCHAR
STARTCHAR p
ENCODING 112
SWIDTH 451 0
DWIDTH 4 0
BBX 6 8 -1 -4
BITMAP
000100
089A00
091831
0DC930
372100
730000
A00000
300000
ENDCHAR
STARTCHAR q
ENCODING 113
SWIDTH 462 0
DWIDTH 4 0
BBX 4 8 0 -4
BITMAP
0100
66C0
A0A0
A775
2691
0910
0D00
0600
ENDCHAR
STARTCHAR r
ENCODING 114
SWIDTH 406 0
DWIDTH 3 0
BBX 5 5 -1 -1
BITMAP
035000
08A300
077350
51A610
002100
ENDCHAR
STARTCHAR s
ENCODING 115
SWIDTH 351 0
DWIDTH 3 0
BBX 3 5 0 -1
BITMAP
0600
5900
4910
9810
1100
ENDCHAR
STARTCHAR t
ENCODING 116
SWIDTH 301 0
DWIDTH 2 0
BBX 5 7 -1 -1
BITMAP
005000
35E610
169100
073000
070500
087200
011000
ENDCHAR
STARTCHAR u
ENCODING 117
SWIDTH 468 0
DWIDTH 4 0
BBX 5 4 0 -1
BITMAP
91A000
A28320
B7A500
100000
ENDCHAR
STARTCHAR v
ENCODING 118
SWIDTH 427 0
DWIDTH 3 0
BBX 5 5 0 -1
BITMAP
001000
A0C110
938400
A70000
100000
ENDCHAR
STARTCHAR w
ENCODING 119
SWIDTH 646 0
DWIDTH 5 0
BBX 6 5 0 -1
BITMAP
001000
91A561
A25773
968700
101000
ENDCHAR
STARTCHAR x
ENCODING 120
SWIDTH 399 0
DWIDTH 3 0
BBX 5 5 -1 -1
BITMAP
020100
087800
05A010
28A710
101000
ENDCHAR
STARTCHAR y
ENCODING 121
SWIDTH 406 0
DWIDTH 3 0
BBX 4 7 -1 -4
BITMAP
0A0A
0A38
1BB4
0281
0090
0190
0020
ENDCHAR
STARTCHAR z
ENCODING 122
SWIDTH 448 0
DWIDTH 4 0
BBX 5 8 -1 -4
BITMAP
001200
017B00
003620
00AA40
027900
085500
37A000
061000
ENDCHAR
STARTCHAR braceleft
ENCODING 123
SWIDTH 243 0
DWIDTH 2 0
BBX 4 8 -1 -1
BITMAP
0035
00A1
0080
0450
0710
0800
1800
0B00
ENDCHAR
STARTCHAR bar
ENCODING 124
SWIDTH 253 0
DWIDTH 2 0
BBX 2 7 0 -1
BITMAP
08
09
26
62
90
A0
10
ENDCHAR
STARTCHAR braceright
ENCODING 125
SWIDTH 243 0
DWIDTH 2 0
BBX 3 8 -1 -1
BITMAP
0160
00B0
0080
0350
0460
0800
0900
8500
ENDCHAR
STARTCHAR asciitilde
ENCODING 126
SWIDTH 329 0
DWIDTH 3 0
BBX 4 2 -1 2
BITMAP
0312
1675
ENDCHAR
STARTCHAR uni00A0
ENCODING 160
SWIDTH 280 0
DWIDTH 2 0
BBX 1 1 0 0
BITMAP
00
ENDCHAR
STARTCHAR exclamdown
ENCODING 161
SWIDTH 249 0
DWIDTH 2 0
BBX 3 7 0 -1
BITMAP
0810
0500
3700
7400
B100
C000
1000
ENDCHAR
STARTCHAR cent
ENCODING 162
SWIDTH 322 0
DWIDTH 3 0
BBX 3 6 0 0
BITMAP
0220
2770
9360
8000
8400
7200
ENDCHAR
STARTCHAR sterling
ENCODING 163
SWIDTH 318 0
DWIDTH 3 0
BBX 4 6 -1 0
BITMAP
0033
0268
0622
0B50
1710
3760
ENDCHAR
STARTCHAR currency
ENCODING 164
SWIDTH 347 0
DWIDTH 3 0
BBX 3 4 0 1
BITMAP
1010
5860
8920
3120
ENDCHAR
STARTCHAR yen
ENCODING 165
SWIDTH 326 0
DWIDTH 3 0
BBX 3 6 0 0
BITMAP
1010
6280
3A30
5B00
8700
3000
ENDCHAR
STARTCHAR brokenbar
ENCODING 166
SWIDTH 253 0
DWIDTH 2 0
BBX 2 7 0 -1
BITMAP
08
09
15
41
90
A0
10
ENDCHAR
STARTCHAR section
ENCODING 167
SWIDTH 297 0
DWIDTH 2 0
BBX 4 7 -1 -1
BITMAP
0256
0544
0591
0972
0470
2680
0200
ENDCHAR
STARTCHAR dieresis
ENCODING 168
SWIDTH 567 0
DWIDTH 5 0
BBX 3 2 1 4
BITMAP
0220
1240
ENDCHAR
STARTCHAR copyright
ENCODING 169
SWIDTH 456 0
DWIDTH 4 0
BBX 4 5 0 1
BITMAP
1654
7686
7617
6774
0210
ENDCHAR
STARTCHAR ordfeminine
ENCODING 170
SWIDTH 373 0
DWIDTH 3 0
BBX 5 5 -1 -1
BITMAP
039100
086200
1BA510
287200
121000
ENDCHAR
STARTCHAR guillemotleft
ENCODING 171
SWIDTH 346 0
DWIDTH 3 0
BBX 4 4 -1 -1
BITMAP
0674
2890
0770
0100
ENDCHAR
STARTCHAR logicalnot
ENCODING 172
SWIDTH 512 0
DWIDTH 4 0
BBX 4 3 0 1
BITMAP
2332
655A
0005
ENDCHAR
STARTCHAR sfthyphen
ENCODING 173
SWIDTH 353 0
DWIDTH 3 0
BBX 4 1 -1 2
BITMAP
1885
ENDCHAR
STARTCHAR registered
ENCODING 174
SWIDTH 456 0
DWIDTH 4 0
BBX 4 5 0 1
BITMAP
1664
7776
7767
6584
0210
ENDCHAR
STARTCHAR macron
ENCODING 175
SWIDTH 567 0
DWIDTH 5 0
BBX 3 2 1 4
BITMAP
0320
1530
ENDCHAR
STARTCHAR degree
ENCODING 176
SWIDTH 144 0
DWIDTH 1 0
BBX 2 2 0 4
BITMAP
22
33
ENDCHAR
STARTCHAR twosuperior
ENCODING 178
SWIDTH 268 0
DWIDTH 2 0
BBX 3 4 0 2
BITMAP
2850
1630
4500
8800
ENDCHAR
STARTCHAR threesuperior
ENCODING 179
SWIDTH 262 0
DWIDTH 2 0
BBX 3 4 0 2
BITMAP
3840
2820
1810
7700
ENDCHAR
STARTCHAR acute
ENCODING 180
SWIDTH 567 0
DWIDTH 5 0
BBX 2 2 2 4
BITMAP
12
61
ENDCHAR
STARTCHAR mu
ENCODING 181
SWIDTH 453 0
DWIDTH 4 0
BBX 5 5 -1 -2
BITMAP
083600
287320
6A9720
910000
500000
ENDCHAR
STARTCHAR paragraph
ENCODING 182
SWIDTH 411 0
DWIDTH 3 0
BBX 4 7 0 -1
BITMAP
17A9
9F95
9F91
0970
0870
1860
1100
ENDCHAR
STARTCHAR periodcentered
ENCODING 183
SWIDTH 168 0
DWIDTH 1 0
BBX 2 1 0 2
BITMAP
81
ENDCHAR
STARTCHAR cedilla
ENCODING 184
SWIDTH 567 0
DWIDTH 5 0
BBX 2 3 2 -2
BITMAP
60
74
10
ENDCHAR
STARTCHAR onesuperior
ENCODING 185
SWIDTH 150 0
DWIDTH 1 0
BBX 2 4 0 2
BITMAP
26
44
70
60
ENDCHAR
STARTCHAR ordmasculine
ENCODING 186
SWIDTH 319 0
DWIDTH 3 0
BBX 4 5 -1 -1
BITMAP
0560
0C96
0990
2960
1110
ENDCHAR
STARTCHAR guillemotright
ENCODING 187
SWIDTH 346 0
DWIDTH 3 0
BBX 4 4 -1 -1
BITMAP
0770
0774
3770
1100
ENDCHAR
STARTCHAR onequarter
ENCODING 188
SWIDTH 579 0
DWIDTH 5 0
BBX 6 7 -1 -1
BITMAP
026062
034260
071842
0675B1
0368B1
190090
000010
ENDCHAR
STARTCHAR onehalf
ENCODING 189
SWIDTH 603 0
DWIDTH 5 0
BBX 5 7 0 -1
BITMAP
260520
342700
618550
663580
360710
908910
101000
ENDCHAR
STARTCHAR threequarters
ENCODING 190
SWIDTH 669 0
DWIDTH 5 0
BBX 5 7 0 -1
BITMAP
384070
282630
183660
778690
0639A0
370270
100010
ENDCHAR
STARTCHAR questiondown
ENCODING 191
SWIDTH 413 0
DWIDTH 3 0
BBX 5 7 -1 -1
BITMAP
000730
000700
002A00
076100
470400
485800
022000
ENDCHAR
STARTCHAR Agrave
ENCODING 192
SWIDTH 552 0
DWIDTH 4 0
BBX 5 10 -1 -2
BITMAP
000230
000050
000690
005480
00A090
047190
3BABA0
0C0740
590830
410640
ENDCHAR
STARTCHAR Aacute
ENCODING 193
SWIDTH 552 0
DWIDTH 4 0
BBX 5 10 -1 -2
BITMAP
000030
000250
000690
005480
00A090
047190
3BABA0
0C0740
590830
410640
ENDCHAR
STARTCHAR Acircumflex
ENCODING 194
SWIDTH 552 0
DWIDTH 4 0
BBX 6 10 -1 -2
BITMAP
000060
000332
000690
005480
00A090
047190
3BABA0
0C0740
590830
410640
ENDCHAR
STARTCHAR Atilde
ENCODING 195
SWIDTH 552 0
DWIDTH 4 0
BBX 6 10 -1 -2
BITMAP
000232
000343
000690
005480
00A090
047190
3BABA0
0C0740
590830
410640
ENDCHAR
STARTCHAR Adieresis
ENCODING 196
SWIDTH 552 0
DWIDTH 4 0
BBX 6 10 -1 -2
BITMAP
000122
000223
000690
005480
00A090
047190
3BABA0
0C0740
590830
410640
ENDCHAR
STARTCHAR Aring
ENCODING 197
SWIDTH 552 0
DWIDTH 4 0
BBX 5 9 -1 -2
BITMAP
000180
0006B0
005480
00A090
047190
3BABA0
0C0740
590830
410640
ENDCHAR
STARTCHAR AE
ENCODING 198
SWIDTH 869 0
DWIDTH 7 0
BBX 8 8 -1 -2
BITMAP
00069668
0054A80A
00A0D415
0471BB40
3BABC210
0C076003
5908B371
41067610
ENDCHAR
STARTCHAR Ccedilla
ENCODING 199
SWIDTH 548 0
DWIDTH 4 0
BBX 5 10 0 -4
BITMAP
028820
0B1660
670930
B20000
D00000
D00100
A46300
1B3000
083000
010000
ENDCHAR
STARTCHAR Egrave
ENCODING 200
SWIDTH 523 0
DWIDTH 4 0
BBX 6 10 -1 -2
BITMAP
000320
000150
004782
02A073
058060
01B500
093100
3A0030
1C3620
026200
ENDCHAR
STARTCHAR Eacute
ENCODING 201
SWIDTH 523 0
DWIDTH 4 0
BBX 6 10 -1 -2
BITMAP
000040
000250
004782
02A073
058060
01B500
093100
3A0030
1C3620
026200
ENDCHAR
STARTCHAR Ecircumflex
ENCODING 202
SWIDTH 523 0
DWIDTH 4 0
BBX 6 10 -1 -2
BITMAP
000060
000332
004782
02A073
058060
01B500
093100
3A0030
1C3620
026200
ENDCHAR
STARTCHAR Edieresis
ENCODING 203
SWIDTH 523 0
DWIDTH 4 0
BBX 6 10 -1 -2
BITMAP
000211
000332
004782
02A073
058060
01B500
093100
3A0030
1C3620
026200
ENDCHAR
STARTCHAR Igrave
ENCODING 204
SWIDTH 537 0
DWIDTH 4 0
BBX 6 10 -1 -2
BITMAP
000230
000050
000690
003890
0065A0
003880
047B81
680A00
674500
044000
ENDCHAR
STARTCHAR Iacute
ENCODING 205
SWIDTH 537 0
DWIDTH 4 0
BBX 6 10 -1 -2
BITMAP
000021
000160
000690
003890
0065A0
003880
047B81
680A00
674500
044000
ENDCHAR
STARTCHAR Icircumflex
ENCODING 206
SWIDTH 537 0
DWIDTH 4 0
BBX 6 10 -1 -2
BITMAP
000052
000134
000690
003890
0065A0
003880
047B81
680A00
674500
044000
ENDCHAR
STARTCHAR Idieresis
ENCODING 207
SWIDTH 537 0
DWIDTH 4 0
BBX 6 10 -1 -2
BITMAP
000122
000223
000690
003890
0065A0
003880
047B81
680A00
674500
044000
ENDCHAR
STARTCHAR Eth
ENCODING 208
SWIDTH 632 0
DWIDTH 5 0
BBX 6 8 -1 -2
BITMAP
019970
017157
00C01A
18D43B
047067
0730B1
0C2930
046100
ENDCHAR
STARTCHAR Ntilde
ENCODING 209
SWIDTH 541 0
DWIDTH 4 0
BBX 6 10 -1 -2
BITMAP
000321
001451
00904B
02E0A7
06A2C3
097280
0A6560
295A30
492E00
140400
ENDCHAR
STARTCHAR Ograve
ENCODING 210
SWIDTH 567 0
DWIDTH 5 0
BBX 5 10 0 -2
BITMAP
003200
001500
03B800
0A0910
650920
A10A10
B00B00
B03800
A1A100
272000
ENDCHAR
STARTCHAR Oacute
ENCODING 211
SWIDTH 567 0
DWIDTH 5 0
BBX 5 10 0 -2
BITMAP
000400
003400
03B800
0A0910
650920
A10A10
B00B00
B03800
A1A100
272000
ENDCHAR
STARTCHAR Ocircumflex
ENCODING 212
SWIDTH 567 0
DWIDTH 5 0
BBX 5 10 0 -2
BITMAP
002500
004400
03B800
0A0910
650920
A10A10
B00B00
B03800
A1A100
272000
ENDCHAR
STARTCHAR Otilde
ENCODING 213
SWIDTH 567 0
DWIDTH 5 0
BBX 5 10 0 -2
BITMAP
003210
014510
03B800
0A0910
650920
A10A10
B00B00
B03800
A1A100
272000
ENDCHAR
STARTCHAR Odieresis
ENCODING 214
SWIDTH 567 0
DWIDTH 5 0
BBX 5 10 0 -2
BITMAP
002200
004310
03B800
0A0910
650920
A10A10
B00B00
B03800
A1A100
272000
ENDCHAR
STARTCHAR multiply
ENCODING 215
SWIDTH 281 0
DWIDTH 2 0
BBX 4 4 -1 1
BITMAP
0100
0783
0670
1450
ENDCHAR
STARTCHAR Oslash
ENCODING 216
SWIDTH 597 0
DWIDTH 5 0
BBX 6 8 -1 -2
BITMAP
003BA7
00A1C2
0476B3
083983
0B83B0
0B91A0
0B3920
187200
ENDCHAR
STARTCHAR Ugrave
ENCODING 217
SWIDTH 574 0
DWIDTH 5 0
BBX 5 10 0 -2
BITMAP
003200
001500
072190
1C0570
480930
830B00
A01A00
A06800
C3A700
361300
ENDCHAR
STARTCHAR Uacute
ENCODING 218
SWIDTH 574 0
DWIDTH 5 0
BBX 5 10 0 -2
BITMAP
000210
001600
072190
1C0570
480930
830B00
A01A00
A06800
C3A700
361300
ENDCHAR
STARTCHAR Ucircumflex
ENCODING 219
SWIDTH 574 0
DWIDTH 5 0
BBX 5 10 0 -2
BITMAP
000600
003320
072190
1C0570
480930
830B00
A01A00
A06800
C3A700
361300
ENDCHAR
STARTCHAR Udieresis
ENCODING 220
SWIDTH 574 0
DWIDTH 5 0
BBX 5 10 0 -2
BITMAP
002110
003310
072190
1C0570
480930
830B00
A01A00
A06800
C3A700
361300
ENDCHAR
STARTCHAR Yacute
ENCODING 221
SWIDTH 532 0
DWIDTH 4 0
BBX 5 10 0 -2
BITMAP
000400
003400
0A0460
390830
740B00
912A00
A49600
257200
859000
560000
ENDCHAR
STARTCHAR Thorn
ENCODING 222
SWIDTH 569 0
DWIDTH 5 0
BBX 6 8 -1 -2
BITMAP
008000
00D640
098093
064084
0A11A0
0C6810
2A1000
230000
ENDCHAR
STARTCHAR germandbls
ENCODING 223
SWIDTH 495 0
DWIDTH 4 0
BBX 5 10 -1 -4
BITMAP
001300
00A830
046900
081800
390740
2B6850
638300
808000
974000
A50000
ENDCHAR
STARTCHAR agrave
ENCODING 224
SWIDTH 435 0
DWIDTH 3 0
BBX 5 6 -1 -1
BITMAP
005000
006300
057600
093540
1C8830
010100
ENDCHAR
STARTCHAR aacute
ENCODING 225
SWIDTH 435 0
DWIDTH 3 0
BBX 5 6 -1 -1
BITMAP
001300
008200
057600
093540
1C8830
010100
ENDCHAR
STARTCHAR acircumflex
ENCODING 226
SWIDTH 435 0
DWIDTH 3 0
BBX 5 6 -1 -1
BITMAP
003300
016500
057600
093540
1C8830
010100
ENDCHAR
STARTCHAR atilde
ENCODING 227
SWIDTH 435 0
DWIDTH 3 0
BBX 5 6 -1 -1
BITMAP
013200
026500
057600
093540
1C8830
010100
ENDCHAR
STARTCHAR adieresis
ENCODING 228
SWIDTH 435 0
DWIDTH 3 0
BBX 5 6 -1 -1
BITMAP
002200
006400
057600
093540
1C8830
010100
ENDCHAR
STARTCHAR aring
ENCODING 229
SWIDTH 435 0
DWIDTH 3 0
BBX 5 6 -1 -1
BITMAP
003100
007300
057600
093540
1C8830
010100
ENDCHAR
STARTCHAR ae
ENCODING 230
SWIDTH 594 0
DWIDTH 5 0
BBX 7 5 -1 -1
BITMAP
00313000
058BA000
094B3320
1C8A6400
01011000
ENDCHAR
STARTCHAR ccedilla
ENCODING 231
SWIDTH 363 0
DWIDTH 3 0
BBX 4 6 0 -2
BITMAP
0300
8930
9023
A550
6600
2500
ENDCHAR
STARTCHAR egrave
ENCODING 232
SWIDTH 372 0
DWIDTH 3 0
BBX 4 6 0 -1
BITMAP
0500
0620
6930
C513
B550
1100
ENDCHAR
STARTCHAR eacute
ENCODING 233
SWIDTH 372 0
DWIDTH 3 0
BBX 4 6 0 -1
BITMAP
0130
0820
6930
C513
B550
1100
ENDCHAR
STARTCHAR ecircumflex
ENCODING 234
SWIDTH 372 0
DWIDTH 3 0
BBX 4 6 0 -1
BITMAP
0430
1540
6930
C513
B550
1100
ENDCHAR
STARTCHAR edieresis
ENCODING 235
SWIDTH 372 0
DWIDTH 3 0
BBX 4 6 0 -1
BITMAP
0220
1540
6930
C513
B550
1100
ENDCHAR
STARTCHAR igrave
ENCODING 236
SWIDTH 274 0
DWIDTH 2 0
BBX 3 5 0 0
BITMAP
4000
3400
8300
9050
9710
ENDCHAR
STARTCHAR iacute
ENCODING 237
SWIDTH 274 0
DWIDTH 2 0
BBX 3 5 0 0
BITMAP
0220
0710
8300
9050
9710
ENDCHAR
STARTCHAR icircumflex
ENCODING 238
SWIDTH 274 0
DWIDTH 2 0
BBX 3 5 0 0
BITMAP
1600
4410
8300
9050
9710
ENDCHAR
STARTCHAR idieresis
ENCODING 239
SWIDTH 274 0
DWIDTH 2 0
BBX 3 5 0 0
BITMAP
2210
4310
8300
9050
9710
ENDCHAR
STARTCHAR eth
ENCODING 240
SWIDTH 393 0
DWIDTH 3 0
BBX 4 7 0 -1
BITMAP
0100
0592
0670
9773
C992
9910
1000
ENDCHAR
STARTCHAR ntilde
ENCODING 241
SWIDTH 461 0
DWIDTH 4 0
BBX 6 6 -1 -1
BITMAP
003200
024500
089A00
0A1932
194A40
000200
ENDCHAR
STARTCHAR ograve
ENCODING 242
SWIDTH 393 0
DWIDTH 3 0
BBX 4 6 0 -1
BITMAP
0500
0520
9743
C992
9910
1000
ENDCHAR
STARTCHAR oacute
ENCODING 243
SWIDTH 393 0
DWIDTH 3 0
BBX 4 6 0 -1
BITMAP
0130
0710
9743
C992
9910
1000
ENDCHAR
STARTCHAR ocircumflex
ENCODING 244
SWIDTH 393 0
DWIDTH 3 0
BBX 4 6 0 -1
BITMAP
0610
2430
9743
C992
9910
1000
ENDCHAR
STARTCHAR otilde
ENCODING 245
SWIDTH 393 0
DWIDTH 3 0
BBX 4 6 0 -1
BITMAP
1320
3540
9743
C992
9910
1000
ENDCHAR
STARTCHAR odieresis
ENCODING 246
SWIDTH 393 0
DWIDTH 3 0
BBX 4 6 0 -1
BITMAP
1220
2430
9743
C992
9910
1000
ENDCHAR
STARTCHAR divide
ENCODING 247
SWIDTH 350 0
DWIDTH 3 0
BBX 3 4 0 1
BITMAP
0100
2720
7740
1300
ENDCHAR
STARTCHAR oslash
ENCODING 248
SWIDTH 406 0
DWIDTH 3 0
BBX 5 5 -1 -1
BITMAP
002400
087730
0B9A20
0A9200
241000
ENDCHAR
STARTCHAR ugrave
ENCODING 249
SWIDTH 468 0
DWIDTH 4 0
BBX 5 6 0 -1
BITMAP
050000
033000
91A000
A28320
B7A500
100000
ENDCHAR
STARTCHAR uacute
ENCODING 250
SWIDTH 468 0
DWIDTH 4 0
BBX 5 6 0 -1
BITMAP
003000
052000
91A000
A28320
B7A500
100000
ENDCHAR
STARTCHAR ucircumflex
ENCODING 251
SWIDTH 468 0
DWIDTH 4 0
BBX 5 6 0 -1
BITMAP
034000
034000
91A000
A28320
B7A500
100000
ENDCHAR
STARTCHAR udieresis
ENCODING 252
SWIDTH 468 0
DWIDTH 4 0
BBX 5 6 0 -1
BITMAP
022000
034000
91A000
A28320
B7A500
100000
ENDCHAR
STARTCHAR yacute
ENCODING 253
SWIDTH 406 0
DWIDTH 3 0
BBX 4 9 -1 -4
BITMAP
0004
0044
0A0A
0A38
1BB4
0281
0090
0190
0020
ENDCHAR
STARTCHAR thorn
ENCODING 254
SWIDTH 451 0
DWIDTH 4 0
BBX 6 10 -1 -4
BITMAP
005000
00B000
036100
079A00
091831
0DC940
372100
730000
A00000
300000
ENDCHAR
STARTCHAR ydieresis
ENCODING 255
SWIDTH 406 0
DWIDTH 3 0
BBX 4 9 -1 -4
BITMAP
0022
0124
0A0A
0A38
1BB4
0281
0090
0190
0020
ENDCHAR
STARTCHAR dotlessi
ENCODING 305
SWIDTH 274 0
DWIDTH 2 0
BBX 3 3 0 0
BITMAP
8300
9050
9710
ENDCHAR
STARTCHAR Lslash
ENCODING 321
SWIDTH 492 0
DWIDTH 4 0
BBX 6 8 -1 -2
BITMAP
0003B2
000B92
034E50
028700
05C810
009000
9DA230
223830
ENDCHAR
STARTCHAR lslash
ENCODING 322
SWIDTH 218 0
DWIDTH 2 0
BBX 4 7 -1 -1
BITMAP
0050
01A0
0591
4C50
0A00
1900
0100
ENDCHAR
STARTCHAR OE
ENCODING 338
SWIDTH 918 0
DWIDTH 7 0
BBX 8 8 0 -2
BITMAP
03B82873
0A09C146
6509A061
A10AB700
B00C5200
B03C0030
A19C4540
27216300
ENDCHAR
STARTCHAR oe
ENCODING 339
SWIDTH 583 0
DWIDTH 5 0
BBX 6 5 0 -1
BITMAP
020300
97AA00
BAB432
99A640
101100
ENDCHAR
STARTCHAR Scaron
ENCODING 352
SWIDTH 474 0
DWIDTH 4 0
BBX 6 10 -1 -2
BITMAP
000332
000150
008780
0470B0
058040
00B400
001B00
250900
493600
066000
ENDCHAR
STARTCHAR scaron
ENCODING 353
SWIDTH 351 0
DWIDTH 3 0
BBX 3 7 0 -1
BITMAP
1340
0610
0600
5900
4910
9810
1100
ENDCHAR
STARTCHAR Ydieresis
ENCODING 376
SWIDTH 532 0
DWIDTH 4 0
BBX 5 10 0 -2
BITMAP
002200
004310
0A0460
390830
740B00
912A00
A49600
257200
859000
560000
ENDCHAR
STARTCHAR Zcaron
ENCODING 381
SWIDTH 455 0
DWIDTH 4 0
BBX 5 10 -1 -2
BITMAP
000430
000330
03BAA0
0101A0
000A30
007500
048000
1A0000
888700
344300
ENDCHAR
STARTCHAR zcaron
ENCODING 382
SWIDTH 349 0
DWIDTH 3 0
BBX 5 9 -1 -4
BITMAP
014400
018200
08A200
018120
08A500
17B000
838000
991000
630000
ENDCHAR
STARTCHAR circumflex
ENCODING 710
SWIDTH 567 0
DWIDTH 5 0
BBX 3 2 1 4
BITMAP
0430
1340
ENDCHAR
STARTCHAR caron
ENCODING 711
SWIDTH 567 0
DWIDTH 5 0
BBX 3 2 1 4
BITMAP
1330
0610
ENDCHAR
STARTCHAR breve
ENCODING 728
SWIDTH 567 0
DWIDTH 5 0
BBX 3 2 1 4
BITMAP
1120
1840
ENDCHAR
STARTCHAR dotaccent
ENCODING 729
SWIDTH 567 0
DWIDTH 5 0
BBX 1 2 2 4
BITMAP
20
30
ENDCHAR
STARTCHAR ring
ENCODING 730
SWIDTH 567 0
DWIDTH 5 0
BBX 2 2 2 4
BITMAP
31
52
ENDCHAR
STARTCHAR ogonek
ENCODING 731
SWIDTH 567 0
DWIDTH 5 0
BBX 3 2 1 -1
BITMAP
0200
2930
ENDCHAR
STARTCHAR tilde
ENCODING 732
SWIDTH 567 0
DWIDTH 5 0
BBX 3 2 1 4
BITMAP
1320
2340
ENDCHAR
STARTCHAR hungarumlaut
ENCODING 733
SWIDTH 567 0
DWIDTH 5 0
BBX 3 2 1 4
BITMAP
0430
4550
ENDCHAR
STARTCHAR endash
ENCODING 8211
SWIDTH 353 0
DWIDTH 3 0
BBX 4 1 -1 2
BITMAP
1885
ENDCHAR
STARTCHAR emdash
ENCODING 8212
SWIDTH 508 0
DWIDTH 4 0
BBX 5 1 -1 2
BITMAP
199980
ENDCHAR
STARTCHAR quoteleft
ENCODING 8216
SWIDTH 155 0
DWIDTH 1 0
BBX 2 3 0 3
BITMAP
11
82
20
ENDCHAR
STARTCHAR quoteright
ENCODING 8217
SWIDTH 154 0
DWIDTH 1 0
BBX 2 3 0 3
BITMAP
22
55
20
ENDCHAR
STARTCHAR quotesinglbase
ENCODING 8218
SWIDTH 188 0
DWIDTH 2 0
BBX 2 2 -1 -1
BITMAP
27
15
ENDCHAR
STARTCHAR quotedblleft
ENCODING 8220
SWIDTH 289 0
DWIDTH 2 0
BBX 3 3 0 3
BITMAP
1210
8930
2210
ENDCHAR
STARTCHAR quotedblright
ENCODING 8221
SWIDTH 288 0
DWIDTH 2 0
BBX 3 3 0 3
BITMAP
2430
5850
1100
ENDCHAR
STARTCHAR quotedblbase
ENCODING 8222
SWIDTH 323 0
DWIDTH 3 0
BBX 3 2 -1 -1
BITMAP
2980
1550
ENDCHAR
STARTCHAR bullet
ENCODING 8226
SWIDTH 180 0
DWIDTH 1 0
BBX 2 3 0 1
BITMAP
10
E3
80
ENDCHAR
STARTCHAR ellipsis
ENCODING 8230
SWIDTH 614 0
DWIDTH 5 0
BBX 5 2 -1 -1
BITMAP
164370
011020
ENDCHAR
STARTCHAR perthousand
ENCODING 8240
SWIDTH 851 0
DWIDTH 7 0
BBX 7 7 0 -1
BITMAP
28234000
83680000
78810000
04771720
1884A270
91897820
10100100
ENDCHAR
STARTCHAR guilsinglleft
ENCODING 8249
SWIDTH 202 0
DWIDTH 2 0
BBX 3 4 -1 -1
BITMAP
0620
2700
0700
0100
ENDCHAR
STARTCHAR guilsinglright
ENCODING 8250
SWIDTH 202 0
DWIDTH 2 0
BBX 3 4 -1 -1
BITMAP
0700
0720
3600
1000
ENDCHAR
STARTCHAR fraction
ENCODING 8260
SWIDTH 600 0
DWIDTH 5 0
BBX 5 7 0 -1
BITMAP
000160
000810
005300
027000
090000
640000
100000
ENDCHAR
STARTCHAR Euro
ENCODING 8364
SWIDTH 334 0
DWIDTH 3 0
BBX 4 6 -1 0
BITMAP
0012
0186
0982
2C60
0712
0240
ENDCHAR
STARTCHAR minus
ENCODING 8722
SWIDTH 353 0
DWIDTH 3 0
BBX 4 1 -1 2
BITMAP
1885
ENDCHAR
STARTCHAR fi
ENCODING 64257
SWIDTH 549 0
DWIDTH 4 0
BBX 6 10 -1 -4
BITMAP
007010
00B060
018010
056760
0B4815
0C4772
369000
729000
947000
770000
ENDCHAR
STARTCHAR fl
ENCODING 64258
SWIDTH 516 0
DWIDTH 4 0
BBX 6 10 -1 -4
BITMAP
007041
00B0A1
0180A0
056680
0B4740
0C4900
369100
729000
947000
770000
ENDCHAR
STARTCHAR .notdef
ENCODING -1
SWIDTH 280 0
DWIDTH 2 0
BBX 1 1 0 0
BITMAP
00
ENDCHAR
ENDFONT
